<mxfile host="app.diagrams.net" modified="2023-08-20T01:49:04.591Z" agent="Mozilla/5.0 (Windows NT 10.0; Win64; x64) AppleWebKit/537.36 (KHTML, like Gecko) Chrome/116.0.0.0 Safari/537.36" etag="0CE0qMh_8JFKkYKcrlI6" version="21.6.6" type="github">
  <diagram name="ページ1" id="yExcHWKLlnd8tCvUC9eo">
    <mxGraphModel dx="2074" dy="1058" grid="0" gridSize="10" guides="1" tooltips="1" connect="1" arrows="1" fold="1" page="1" pageScale="1" pageWidth="827" pageHeight="1169" math="0" shadow="0">
      <root>
        <mxCell id="0" />
        <mxCell id="1" parent="0" />
        <mxCell id="5tt1Hlh8lrisDcBKcSsC-3" style="rounded=0;orthogonalLoop=1;jettySize=auto;html=1;exitX=1;exitY=0.5;exitDx=0;exitDy=0;exitPerimeter=0;endArrow=none;endFill=0;" parent="1" source="5tt1Hlh8lrisDcBKcSsC-1" target="5tt1Hlh8lrisDcBKcSsC-2" edge="1">
          <mxGeometry relative="1" as="geometry" />
        </mxCell>
        <mxCell id="5tt1Hlh8lrisDcBKcSsC-4" value="1&lt;br&gt;fa1" style="edgeLabel;html=1;align=center;verticalAlign=middle;resizable=0;points=[];" parent="5tt1Hlh8lrisDcBKcSsC-3" vertex="1" connectable="0">
          <mxGeometry x="-0.9133" y="-1" relative="1" as="geometry">
            <mxPoint as="offset" />
          </mxGeometry>
        </mxCell>
        <mxCell id="5tt1Hlh8lrisDcBKcSsC-5" value="2&lt;br&gt;fa1" style="edgeLabel;html=1;align=center;verticalAlign=middle;resizable=0;points=[];" parent="5tt1Hlh8lrisDcBKcSsC-3" vertex="1" connectable="0">
          <mxGeometry x="0.6665" y="-1" relative="1" as="geometry">
            <mxPoint x="21" y="-3" as="offset" />
          </mxGeometry>
        </mxCell>
        <mxCell id="5tt1Hlh8lrisDcBKcSsC-1" value="R1" style="shape=mxgraph.cisco.routers.router;sketch=0;html=1;pointerEvents=1;dashed=0;fillColor=#036897;strokeColor=#ffffff;strokeWidth=2;verticalLabelPosition=bottom;verticalAlign=top;align=center;outlineConnect=0;fontFamily=Helvetica;fontSize=11;fontColor=default;" parent="1" vertex="1">
          <mxGeometry x="178" y="61" width="78" height="53" as="geometry" />
        </mxCell>
        <mxCell id="5tt1Hlh8lrisDcBKcSsC-2" value="R2" style="shape=mxgraph.cisco.routers.router;sketch=0;html=1;pointerEvents=1;dashed=0;fillColor=#036897;strokeColor=#ffffff;strokeWidth=2;verticalLabelPosition=bottom;verticalAlign=top;align=center;outlineConnect=0;fontFamily=Helvetica;fontSize=11;fontColor=default;" parent="1" vertex="1">
          <mxGeometry x="1105" y="61" width="78" height="53" as="geometry" />
        </mxCell>
        <mxCell id="5tt1Hlh8lrisDcBKcSsC-6" value="Vlan10&lt;br&gt;192.168.10.0/24" style="text;html=1;align=center;verticalAlign=middle;resizable=0;points=[];autosize=1;strokeColor=none;fillColor=none;" parent="1" vertex="1">
          <mxGeometry x="346" y="7" width="105" height="41" as="geometry" />
        </mxCell>
        <mxCell id="8fQAwc61Cpzisv9PJqPZ-1" value="&lt;div&gt;Router#sh run | s int&lt;/div&gt;&lt;div&gt;interface FastEthernet0&lt;/div&gt;&lt;div&gt;&amp;nbsp;switchport access vlan 10&lt;/div&gt;&lt;div&gt;interface FastEthernet1&lt;/div&gt;&lt;div&gt;interface FastEthernet2&lt;/div&gt;&lt;div&gt;interface FastEthernet3&lt;/div&gt;&lt;div&gt;interface FastEthernet4&lt;/div&gt;&lt;div&gt;&amp;nbsp;no ip address&lt;/div&gt;&lt;div&gt;&amp;nbsp;shutdown&lt;/div&gt;&lt;div&gt;&amp;nbsp;duplex auto&lt;/div&gt;&lt;div&gt;&amp;nbsp;speed auto&lt;/div&gt;&lt;div&gt;interface Vlan1&lt;/div&gt;&lt;div&gt;&amp;nbsp;no ip address&lt;/div&gt;&lt;div&gt;interface Vlan10&lt;/div&gt;&lt;div&gt;&amp;nbsp;ip address 192.168.10.1 255.255.255.0&lt;/div&gt;" style="text;html=1;align=left;verticalAlign=middle;resizable=0;points=[];autosize=1;strokeColor=none;fillColor=none;" parent="1" vertex="1">
          <mxGeometry x="102" y="152" width="230" height="228" as="geometry" />
        </mxCell>
        <mxCell id="8fQAwc61Cpzisv9PJqPZ-2" value="&lt;div&gt;Router#ping 255.255.255.255&lt;/div&gt;&lt;div&gt;&lt;br&gt;&lt;/div&gt;&lt;div&gt;Type escape sequence to abort.&lt;/div&gt;&lt;div&gt;Sending 5, 100-byte ICMP Echos to 255.255.255.255, timeout is 2 seconds:&lt;/div&gt;&lt;div&gt;.&lt;/div&gt;&lt;div&gt;Reply to request 1 from 192.168.10.2, 1 ms&lt;/div&gt;&lt;div&gt;Reply to request 2 from 192.168.10.2, 1 ms&lt;/div&gt;&lt;div&gt;Reply to request 3 from 192.168.10.2, 1 ms&lt;/div&gt;&lt;div&gt;Router#ping 255.255.255.255&lt;/div&gt;&lt;div&gt;&lt;br&gt;&lt;/div&gt;&lt;div&gt;Type escape sequence to abort.&lt;/div&gt;&lt;div&gt;Sending 5, 100-byte ICMP Echos to 255.255.255.255, timeout is 2 seconds:&lt;/div&gt;&lt;div&gt;.&lt;/div&gt;&lt;div&gt;Reply to request 1 from 192.168.10.2, 1 ms&lt;/div&gt;&lt;div&gt;Reply to request 2 from 192.168.10.2, 1 ms&lt;/div&gt;&lt;div&gt;Reply to request 3 from 192.168.10.2, 1 ms&lt;/div&gt;&lt;div&gt;Reply to request 4 from 192.168.10.2, 1 msReply to request 4 from 192.168.10.2, 1 ms&lt;/div&gt;" style="text;html=1;align=left;verticalAlign=middle;resizable=0;points=[];autosize=1;strokeColor=none;fillColor=none;fontSize=12;fontFamily=Helvetica;fontColor=default;" parent="1" vertex="1">
          <mxGeometry x="102" y="452" width="480" height="256" as="geometry" />
        </mxCell>
        <mxCell id="8fQAwc61Cpzisv9PJqPZ-3" value="&lt;div&gt;Router#sh int status&lt;/div&gt;&lt;div&gt;&lt;br&gt;&lt;/div&gt;&lt;div&gt;Port&amp;nbsp; &amp;nbsp; Name&amp;nbsp; &amp;nbsp; &amp;nbsp; &amp;nbsp; &amp;nbsp; &amp;nbsp; &amp;nbsp; &amp;nbsp;Status&amp;nbsp; &amp;nbsp; &amp;nbsp; &amp;nbsp;Vlan&amp;nbsp; &amp;nbsp; &amp;nbsp; &amp;nbsp;Duplex Speed Type&lt;/div&gt;&lt;div&gt;Fa0&amp;nbsp; &amp;nbsp; &amp;nbsp; &amp;nbsp; &amp;nbsp; &amp;nbsp; &amp;nbsp; &amp;nbsp; &amp;nbsp; &amp;nbsp; &amp;nbsp; &amp;nbsp; connected&amp;nbsp; &amp;nbsp; 10&amp;nbsp; &amp;nbsp; &amp;nbsp; &amp;nbsp; &amp;nbsp;a-full&amp;nbsp; &amp;nbsp;a-100 10/100BaseTX&lt;/div&gt;&lt;div&gt;Fa1&amp;nbsp; &amp;nbsp; &amp;nbsp; &amp;nbsp; &amp;nbsp; &amp;nbsp; &amp;nbsp; &amp;nbsp; &amp;nbsp; &amp;nbsp; &amp;nbsp; &amp;nbsp; connected&amp;nbsp; &amp;nbsp; 1&amp;nbsp; &amp;nbsp; &amp;nbsp; &amp;nbsp; &amp;nbsp; a-full&amp;nbsp; &amp;nbsp;a-100 10/100BaseTX&lt;/div&gt;&lt;div&gt;Fa2&amp;nbsp; &amp;nbsp; &amp;nbsp; &amp;nbsp; &amp;nbsp; &amp;nbsp; &amp;nbsp; &amp;nbsp; &amp;nbsp; &amp;nbsp; &amp;nbsp; &amp;nbsp; connected&amp;nbsp; &amp;nbsp; 1&amp;nbsp; &amp;nbsp; &amp;nbsp; &amp;nbsp; &amp;nbsp; a-full&amp;nbsp; &amp;nbsp;a-100 10/100BaseTX&lt;/div&gt;&lt;div&gt;Fa3&amp;nbsp; &amp;nbsp; &amp;nbsp; &amp;nbsp; &amp;nbsp; &amp;nbsp; &amp;nbsp; &amp;nbsp; &amp;nbsp; &amp;nbsp; &amp;nbsp; &amp;nbsp; connected&amp;nbsp; &amp;nbsp; 1&amp;nbsp; &amp;nbsp; &amp;nbsp; &amp;nbsp; &amp;nbsp; a-full&amp;nbsp; &amp;nbsp;a-100 10/100BaseTX&lt;/div&gt;" style="text;html=1;align=left;verticalAlign=middle;resizable=0;points=[];autosize=1;strokeColor=none;fillColor=none;fontSize=12;fontFamily=Helvetica;fontColor=default;" parent="1" vertex="1">
          <mxGeometry x="102" y="742" width="380" height="113" as="geometry" />
        </mxCell>
        <mxCell id="yyupXOm4Mnok7aOmkiDr-1" value="&lt;div&gt;Router#sh run | s int&lt;/div&gt;&lt;div&gt;interface FastEthernet0&lt;/div&gt;&lt;div&gt;&amp;nbsp;switchport access vlan 10&lt;/div&gt;&lt;div&gt;interface FastEthernet1&lt;/div&gt;&lt;div&gt;interface FastEthernet2&lt;/div&gt;&lt;div&gt;interface FastEthernet3&lt;/div&gt;&lt;div&gt;interface FastEthernet4&lt;/div&gt;&lt;div&gt;&amp;nbsp;no ip address&lt;/div&gt;&lt;div&gt;&amp;nbsp;shutdown&lt;/div&gt;&lt;div&gt;&amp;nbsp;duplex auto&lt;/div&gt;&lt;div&gt;&amp;nbsp;speed auto&lt;/div&gt;&lt;div&gt;interface Vlan1&lt;/div&gt;&lt;div&gt;&amp;nbsp;no ip address&lt;/div&gt;&lt;div&gt;interface Vlan10&lt;/div&gt;&lt;div&gt;&amp;nbsp;ip address 192.168.10.2 255.255.255.0&lt;/div&gt;" style="text;html=1;align=left;verticalAlign=middle;resizable=0;points=[];autosize=1;strokeColor=none;fillColor=none;" vertex="1" parent="1">
          <mxGeometry x="1024" y="147" width="230" height="228" as="geometry" />
        </mxCell>
        <mxCell id="yyupXOm4Mnok7aOmkiDr-3" value="&lt;div&gt;Router#ping 192.168.10.255&lt;/div&gt;&lt;div&gt;&lt;br&gt;&lt;/div&gt;&lt;div&gt;Type escape sequence to abort.&lt;/div&gt;&lt;div&gt;Sending 5, 100-byte ICMP Echos to 192.168.10.255, timeout is 2 seconds:&lt;/div&gt;&lt;div&gt;&lt;br&gt;&lt;/div&gt;&lt;div&gt;Reply to request 0 from 192.168.10.1, 1 ms&lt;/div&gt;&lt;div&gt;Reply to request 1 from 192.168.10.1, 1 ms&lt;/div&gt;&lt;div&gt;Reply to request 2 from 192.168.10.1, 1 ms&lt;/div&gt;&lt;div&gt;Reply to request 3 from 192.168.10.1, 1 ms&lt;/div&gt;&lt;div&gt;Reply to request 4 from 192.168.10.1, 1 ms&lt;/div&gt;" style="text;html=1;align=left;verticalAlign=middle;resizable=0;points=[];autosize=1;strokeColor=none;fillColor=none;fontSize=12;fontFamily=Helvetica;fontColor=default;" vertex="1" parent="1">
          <mxGeometry x="1024" y="433" width="415" height="156" as="geometry" />
        </mxCell>
        <mxCell id="yyupXOm4Mnok7aOmkiDr-4" value="&lt;div&gt;Router#sh ip int b&lt;/div&gt;&lt;div&gt;Interface&amp;nbsp; &amp;nbsp; &amp;nbsp; &amp;nbsp; &amp;nbsp; &amp;nbsp; &amp;nbsp; &amp;nbsp; &amp;nbsp; IP-Address&amp;nbsp; &amp;nbsp; &amp;nbsp; OK? Method Status&amp;nbsp; &amp;nbsp; &amp;nbsp; &amp;nbsp; &amp;nbsp; &amp;nbsp; &amp;nbsp; &amp;nbsp; Protocol&lt;/div&gt;&lt;div&gt;FastEthernet0&amp;nbsp; &amp;nbsp; &amp;nbsp; &amp;nbsp; &amp;nbsp; &amp;nbsp; &amp;nbsp; unassigned&amp;nbsp; &amp;nbsp; &amp;nbsp; YES unset&amp;nbsp; up&amp;nbsp; &amp;nbsp; &amp;nbsp; &amp;nbsp; &amp;nbsp; &amp;nbsp; &amp;nbsp; &amp;nbsp; &amp;nbsp; &amp;nbsp; up&lt;/div&gt;&lt;div&gt;FastEthernet1&amp;nbsp; &amp;nbsp; &amp;nbsp; &amp;nbsp; &amp;nbsp; &amp;nbsp; &amp;nbsp; unassigned&amp;nbsp; &amp;nbsp; &amp;nbsp; YES unset&amp;nbsp; up&amp;nbsp; &amp;nbsp; &amp;nbsp; &amp;nbsp; &amp;nbsp; &amp;nbsp; &amp;nbsp; &amp;nbsp; &amp;nbsp; &amp;nbsp; up&lt;/div&gt;&lt;div&gt;FastEthernet2&amp;nbsp; &amp;nbsp; &amp;nbsp; &amp;nbsp; &amp;nbsp; &amp;nbsp; &amp;nbsp; unassigned&amp;nbsp; &amp;nbsp; &amp;nbsp; YES unset&amp;nbsp; up&amp;nbsp; &amp;nbsp; &amp;nbsp; &amp;nbsp; &amp;nbsp; &amp;nbsp; &amp;nbsp; &amp;nbsp; &amp;nbsp; &amp;nbsp; up&lt;/div&gt;&lt;div&gt;FastEthernet3&amp;nbsp; &amp;nbsp; &amp;nbsp; &amp;nbsp; &amp;nbsp; &amp;nbsp; &amp;nbsp; unassigned&amp;nbsp; &amp;nbsp; &amp;nbsp; YES unset&amp;nbsp; up&amp;nbsp; &amp;nbsp; &amp;nbsp; &amp;nbsp; &amp;nbsp; &amp;nbsp; &amp;nbsp; &amp;nbsp; &amp;nbsp; &amp;nbsp; up&lt;/div&gt;&lt;div&gt;FastEthernet4&amp;nbsp; &amp;nbsp; &amp;nbsp; &amp;nbsp; &amp;nbsp; &amp;nbsp; &amp;nbsp; unassigned&amp;nbsp; &amp;nbsp; &amp;nbsp; YES unset&amp;nbsp; administratively down down&lt;/div&gt;&lt;div&gt;Vlan1&amp;nbsp; &amp;nbsp; &amp;nbsp; &amp;nbsp; &amp;nbsp; &amp;nbsp; &amp;nbsp; &amp;nbsp; &amp;nbsp; &amp;nbsp; &amp;nbsp; unassigned&amp;nbsp; &amp;nbsp; &amp;nbsp; YES unset&amp;nbsp; up&amp;nbsp; &amp;nbsp; &amp;nbsp; &amp;nbsp; &amp;nbsp; &amp;nbsp; &amp;nbsp; &amp;nbsp; &amp;nbsp; &amp;nbsp; up&lt;/div&gt;&lt;div&gt;Vlan10&amp;nbsp; &amp;nbsp; &amp;nbsp; &amp;nbsp; &amp;nbsp; &amp;nbsp; &amp;nbsp; &amp;nbsp; &amp;nbsp; &amp;nbsp; &amp;nbsp;192.168.10.2&amp;nbsp; &amp;nbsp; YES manual up&amp;nbsp; &amp;nbsp; &amp;nbsp; &amp;nbsp; &amp;nbsp; &amp;nbsp; &amp;nbsp; &amp;nbsp; &amp;nbsp; &amp;nbsp; up&lt;/div&gt;" style="text;html=1;align=left;verticalAlign=middle;resizable=0;points=[];autosize=1;strokeColor=none;fillColor=none;fontSize=12;fontFamily=Helvetica;fontColor=default;" vertex="1" parent="1">
          <mxGeometry x="1020" y="744" width="431" height="142" as="geometry" />
        </mxCell>
        <mxCell id="yyupXOm4Mnok7aOmkiDr-7" value="&lt;div&gt;Router#sh int status&lt;/div&gt;&lt;div&gt;&lt;br&gt;&lt;/div&gt;&lt;div&gt;Port&amp;nbsp; &amp;nbsp; Name&amp;nbsp; &amp;nbsp; &amp;nbsp; &amp;nbsp; &amp;nbsp; &amp;nbsp; &amp;nbsp; &amp;nbsp;Status&amp;nbsp; &amp;nbsp; &amp;nbsp; &amp;nbsp;Vlan&amp;nbsp; &amp;nbsp; &amp;nbsp; &amp;nbsp;Duplex Speed Type&lt;/div&gt;&lt;div&gt;Fa0&amp;nbsp; &amp;nbsp; &amp;nbsp; &amp;nbsp; &amp;nbsp; &amp;nbsp; &amp;nbsp; &amp;nbsp; &amp;nbsp; &amp;nbsp; &amp;nbsp; &amp;nbsp; connected&amp;nbsp; &amp;nbsp; 10&amp;nbsp; &amp;nbsp; &amp;nbsp; &amp;nbsp; &amp;nbsp;a-full&amp;nbsp; &amp;nbsp;a-100 10/100BaseTX&lt;/div&gt;&lt;div&gt;Fa1&amp;nbsp; &amp;nbsp; &amp;nbsp; &amp;nbsp; &amp;nbsp; &amp;nbsp; &amp;nbsp; &amp;nbsp; &amp;nbsp; &amp;nbsp; &amp;nbsp; &amp;nbsp; connected&amp;nbsp; &amp;nbsp; 1&amp;nbsp; &amp;nbsp; &amp;nbsp; &amp;nbsp; &amp;nbsp; a-full&amp;nbsp; &amp;nbsp;a-100 10/100BaseTX&lt;/div&gt;&lt;div&gt;Fa2&amp;nbsp; &amp;nbsp; &amp;nbsp; &amp;nbsp; &amp;nbsp; &amp;nbsp; &amp;nbsp; &amp;nbsp; &amp;nbsp; &amp;nbsp; &amp;nbsp; &amp;nbsp; connected&amp;nbsp; &amp;nbsp; 1&amp;nbsp; &amp;nbsp; &amp;nbsp; &amp;nbsp; &amp;nbsp; a-full&amp;nbsp; &amp;nbsp;a-100 10/100BaseTX&lt;/div&gt;&lt;div&gt;Fa3&amp;nbsp; &amp;nbsp; &amp;nbsp; &amp;nbsp; &amp;nbsp; &amp;nbsp; &amp;nbsp; &amp;nbsp; &amp;nbsp; &amp;nbsp; &amp;nbsp; &amp;nbsp; connected&amp;nbsp; &amp;nbsp; 1&amp;nbsp; &amp;nbsp; &amp;nbsp; &amp;nbsp; &amp;nbsp; a-full&amp;nbsp; &amp;nbsp;a-100 10/100BaseTX&lt;/div&gt;" style="text;html=1;align=left;verticalAlign=middle;resizable=0;points=[];autosize=1;strokeColor=none;fillColor=none;fontSize=12;fontFamily=Helvetica;fontColor=default;" vertex="1" parent="1">
          <mxGeometry x="1024" y="610" width="380" height="113" as="geometry" />
        </mxCell>
        <mxCell id="yyupXOm4Mnok7aOmkiDr-9" value="&lt;div&gt;Router#sh arp&lt;/div&gt;&lt;div&gt;Protocol&amp;nbsp; Address&amp;nbsp; &amp;nbsp; &amp;nbsp; &amp;nbsp; &amp;nbsp; Age (min)&amp;nbsp; Hardware Addr&amp;nbsp; &amp;nbsp;Type&amp;nbsp; &amp;nbsp;Interface&lt;/div&gt;&lt;div&gt;Internet&amp;nbsp; 192.168.10.1&amp;nbsp; &amp;nbsp; &amp;nbsp; &amp;nbsp; &amp;nbsp; &amp;nbsp;46&amp;nbsp; &amp;nbsp;10f3.11e8.cffc&amp;nbsp; ARPA&amp;nbsp; &amp;nbsp;Vlan10&lt;/div&gt;&lt;div&gt;Internet&amp;nbsp; 192.168.10.2&amp;nbsp; &amp;nbsp; &amp;nbsp; &amp;nbsp; &amp;nbsp; &amp;nbsp; -&amp;nbsp; &amp;nbsp;10f3.11e8.cf2a&amp;nbsp; ARPA&amp;nbsp; &amp;nbsp;Vlan10&lt;/div&gt;" style="text;html=1;align=left;verticalAlign=middle;resizable=0;points=[];autosize=1;strokeColor=none;fillColor=none;fontSize=12;fontFamily=Helvetica;fontColor=default;" vertex="1" parent="1">
          <mxGeometry x="1020" y="907" width="376" height="70" as="geometry" />
        </mxCell>
      </root>
    </mxGraphModel>
  </diagram>
</mxfile>
